<svg width="16" height="16" viewBox="0 0 16 16" fill="none" xmlns="http://www.w3.org/2000/svg">
<path fill-rule="evenodd" clip-rule="evenodd" d="M3.33331 8.66666L11.2433 8.66666L8.82131 11.5733C8.58531 11.856 8.62398 12.2767 8.90665 12.512C9.18998 12.748 9.60998 12.7093 9.84531 12.4267L13.1786 8.42666C13.2046 8.39532 13.218 8.35866 13.2373 8.32399C13.2533 8.29599 13.2726 8.27199 13.2846 8.24132C13.3146 8.16466 13.3326 8.08399 13.3326 8.00266C13.3326 8.00199 13.3333 8.00066 13.3333 7.99999C13.3333 7.99932 13.3326 7.99799 13.3326 7.99732C13.3326 7.91599 13.3146 7.83532 13.2846 7.75866C13.2726 7.72799 13.2533 7.70399 13.2373 7.67599C13.218 7.64132 13.2046 7.60466 13.1786 7.57332L9.84531 3.57332C9.71331 3.41532 9.52398 3.33332 9.33331 3.33332C9.18265 3.33332 9.03131 3.38399 8.90665 3.48799C8.62398 3.72332 8.58531 4.14399 8.82131 4.42666L11.2433 7.33332L3.33331 7.33332C2.96531 7.33332 2.66665 7.63199 2.66665 7.99999C2.66665 8.36799 2.96531 8.66666 3.33331 8.66666Z" fill="white"/>
</svg>
