<svg width="20" height="17" viewBox="0 0 20 17" fill="none" xmlns="http://www.w3.org/2000/svg">
<path fill-rule="evenodd" clip-rule="evenodd" d="M10.8334 9.83329C10.8334 10.2933 10.46 10.6666 10 10.6666C9.54003 10.6666 9.16669 10.2933 9.16669 9.83329V6.49996C9.16669 6.03996 9.54003 5.66663 10 5.66663C10.46 5.66663 10.8334 6.03996 10.8334 6.49996V9.83329ZM10 13.1666C9.54003 13.1666 9.16669 12.7933 9.16669 12.3333C9.16669 11.8733 9.54003 11.5 10 11.5C10.46 11.5 10.8334 11.8733 10.8334 12.3333C10.8334 12.7933 10.46 13.1666 10 13.1666ZM18.8009 12.5858L12.4075 1.98663C11.9084 1.15996 11.0084 0.666626 10 0.666626C8.99169 0.666626 8.09169 1.15996 7.59253 1.98663L1.19919 12.5858C0.725861 13.3716 0.711694 14.3166 1.16169 15.1133C1.64419 15.9691 2.58169 16.5 3.60669 16.5H16.3934C17.4184 16.5 18.3559 15.9691 18.8384 15.1133C19.2884 14.3166 19.2742 13.3716 18.8009 12.5858Z" fill="url(#paint0_linear_379_122)"/>
<defs>
<linearGradient id="paint0_linear_379_122" x1="10" y1="0.666626" x2="10" y2="16.5" gradientUnits="userSpaceOnUse">
<stop stop-color="#FF5959"/>
<stop offset="1" stop-color="#EF2C2C"/>
</linearGradient>
</defs>
</svg>
